<?xml version="1.0" standalone="no"?>
<!DOCTYPE svg PUBLIC "-//W3C//DTD SVG 1.1//EN" "http://www.w3.org/Graphics/SVG/1.1/DTD/svg11.dtd" >
<!--
2013-9-30: Created.
-->
<svg>
<metadata>
Created by iconfont
</metadata>
<defs>

<font id="im-icon" horiz-adv-x="1024" >
  <font-face
    font-family="im-icon"
    font-weight="500"
    font-stretch="normal"
    units-per-em="1024"
    ascent="896"
    descent="-128"
  />
    <missing-glyph />
    
    <glyph glyph-name="backtop-outlined" unicode="&#59011;" d="M865.495 59.962999999999965c-5.891 0-17.675 0-23.566 5.891L512 401.674 182.071 71.74699999999996c-11.783-11.783-29.458-11.783-41.241 0s-11.783 29.458 0 41.241l353.495 353.495c11.783 11.783 29.458 11.783 41.241 0l353.496-353.495c11.783-11.783 11.783-29.458 0-41.241-5.892-11.783-17.675-11.783-23.567-11.783z m0 589.158h-706.99c-17.675 0-29.458 11.784-29.458 29.458s11.783 29.458 29.458 29.458h706.99c17.675 0 29.458-11.783 29.458-29.458s-11.783-29.458-29.458-29.458z"  horiz-adv-x="1024" />

    
    <glyph glyph-name="edit-outlined" unicode="&#59012;" d="M876.089-62.009000000000015H147.91c-36.409 0-68.267 31.858-68.267 68.267V734.436c0 36.408 31.858 68.266 68.267 68.266h455.111c13.654 0 22.756-9.102 22.756-22.755s-9.102-22.756-22.756-22.756h-455.11c-13.654 0-22.756-9.102-22.756-22.755v-728.178c0-13.654 9.102-22.756 22.755-22.756H876.09c13.653 0 22.755 9.102 22.755 22.756v455.11c0 13.654 9.103 22.756 22.756 22.756s22.756-9.102 22.756-22.755v-455.111c0-40.96-31.858-68.267-68.267-68.267zM457.387 233.813H389.12c-13.653 0-22.756 9.103-22.756 22.756v68.267c0 4.55 4.552 13.653 4.552 18.204l446.008 446.009c9.103 9.102 22.756 9.102 31.858 0l68.267-68.267c9.102-9.102 9.102-22.755 0-31.858L471.04 242.91600000000005c0-4.552-9.102-9.103-13.653-9.103z m-45.511 45.511h36.408l423.254 423.254-40.96 36.409-423.254-423.254v-36.409z"  horiz-adv-x="1024" />

    
    <glyph glyph-name="chat-outlined" unicode="&#59013;" d="M289.34 62.95500000000004c-5.179 0-10.357 0-15.535 5.178-5.178 5.178-10.356 15.534-10.356 20.712v77.673H102.926c-15.535 0-25.89 10.356-25.89 25.89V679.155c0 15.534 10.355 25.89 25.89 25.89h818.148c15.535 0 25.89-10.356 25.89-25.89V187.23000000000002c0-15.534-10.355-25.89-25.89-25.89H496.466l-196.77-98.385h-10.357zM128.816 213.12h160.522c15.535 0 25.891-10.356 25.891-25.89v-62.139l165.701 82.85c5.178 0 5.178 5.179 10.356 5.179h403.896V653.264H128.817v-440.143zM304.874 435.782a36.247 36.247 0 1 1 72.494 0 36.247 36.247 0 1 1-72.494 0zM475.753 435.782a36.247 36.247 0 1 1 72.494 0 36.247 36.247 0 1 1-72.494 0zM646.632 435.782a36.247 36.247 0 1 1 72.494 0 36.247 36.247 0 1 1-72.494 0z"  horiz-adv-x="1024" />

    
    <glyph glyph-name="delete-outlined" unicode="&#59014;" d="M812.373-34.702H216.178c-9.102 0-22.756 9.102-22.756 22.755V666.17c0 13.653 9.102 22.755 22.756 22.755h596.195c13.654 0 22.756-9.102 22.756-22.755v-673.565c0-18.204-9.102-27.306-22.756-27.306z m-573.44 45.51h550.685V643.414H238.933V10.809999999999945zM434.631 183.75099999999998c-13.653 0-22.755 9.102-22.755 22.756V465.92c0 13.653 9.102 22.756 22.755 22.756s22.756-9.103 22.756-22.756v-259.413c0-13.654-9.103-22.756-22.756-22.756z m159.289 0c-13.653 0-22.756 9.102-22.756 22.756V465.92c0 13.653 9.103 22.756 22.756 22.756s22.756-9.103 22.756-22.756v-259.413c0-13.654-9.103-22.756-22.756-22.756z m318.578 459.662H120.604c-13.653 0-22.755 9.103-22.755 22.756s9.102 22.755 22.755 22.755H917.05c13.653 0 22.755-9.102 22.755-22.755s-13.653-22.756-27.306-22.756zM675.84 643.413H357.262c-9.102 0-13.653 4.551-18.204 9.103-4.551 9.102-4.551 13.653 0 22.755L402.773 793.6c4.551 9.102 9.103 13.653 18.205 13.653h186.595c9.103 0 18.205-4.55 18.205-13.653l68.266-118.329c4.552-9.102 4.552-13.653 0-22.755-4.55-4.552-9.102-9.103-18.204-9.103z m-282.169 45.511H634.88l-40.96 72.818H434.631l-40.96-72.818z"  horiz-adv-x="1024" />

    
    <glyph glyph-name="home-outlined" unicode="&#59015;" d="M812.98-18.924999999999955H177.038c-14.563 0-24.272 9.709-24.272 24.273V519.927c0 9.709 4.854 14.563 9.709 19.418l320.398 257.29c9.709 4.854 19.418 4.854 29.127 0l320.398-257.29c4.855-4.855 9.71-9.71 9.71-19.418v-514.58c-4.855-14.563-14.564-24.272-29.128-24.272zM201.31 29.620000000000005h592.252V505.363L497.436 743.234 201.311 505.363V29.620000000000005zM812.98-18.924999999999955H177.038c-14.563 0-24.272 9.709-24.272 24.273V466.527l-67.964-53.4c-9.709-9.709-24.272-4.854-33.981 4.855-4.855 4.854-4.855 9.709-4.855 14.563 0 4.855 4.855 14.564 9.71 19.418L482.872 791.78c9.709 4.854 19.418 4.854 29.127 0l320.398-257.29 106.8-87.381c9.709-9.71 9.709-24.273 4.854-33.982-9.709-9.709-24.272-9.709-33.981-4.854l-67.964 53.4v-461.18c-4.854-9.709-14.563-19.418-29.127-19.418zM201.31 29.620000000000005h592.252V505.363L497.436 743.234 201.311 505.363V29.620000000000005zM599.381-18.924999999999955H390.637c-14.564 0-24.273 9.709-24.273 24.273V282.05499999999995c0 14.564 9.71 24.273 24.273 24.273h213.599c14.563 0 24.272-9.71 24.272-24.273v-276.707c-4.854-14.564-14.563-24.273-29.127-24.273zM414.91 29.620000000000005h165.053V257.783H414.91V29.620000000000005z"  horiz-adv-x="1024" />

    
    <glyph glyph-name="invoice-outlined" unicode="&#59005;" d="M656.3751831-37.875H264.50027466c-54.37490844 0-99.37545776 41.2498169-99.37545776 91.8748169V714.0001831C165.1248169 764.6251831 210.12536622 805.875 264.50027466 805.875h494.99945068c54.37490844 0 99.37545776-41.2498169 99.37545776-91.8748169V147.75c0-5.62527466-1.87536622-9.3751831-5.62527466-13.12509156l-183.74963378-166.87463378c-3.74990844-3.74990844-7.50064087-5.62527466-13.12591553-5.62527466zM264.50027466 768.37509156c-33.75 0-61.87554932-24.3748169-61.87554932-54.37490846v-661.87490844c0-28.12554932 28.12554932-52.50036622 61.87554932-52.50036622h384.37509155l172.49908447 157.50027466v556.875c0 30.00009156-28.12472534 54.37408448-61.87472534 54.37408448H264.50027466zM671.3748169-19.124633779999954h-37.49908448V74.62472534000005c0 61.87554932 43.12435913 112.50054932 95.62390137 112.50054932h129.37554931v-37.49990844H729.49963379c-31.87463378 0-58.1248169-33.75-58.12481689-75.00064088v-93.74935912zM315.12527466 168.37408446999996h224.99945068V130.875H315.12527466zM296.37408447 618.3746337800001H727.62591553v-37.49908446H296.37408447z m0-149.99963378H727.62591553v-37.49990844H296.37408447z m0-149.99963378H727.62591553v-37.50073243H296.37408447z"  horiz-adv-x="1024" />

    
    <glyph glyph-name="receive-outlined" unicode="&#59006;" d="M899.875-37.875H332.875C211.375-37.875 110.125 63.375 110.125 184.875V583.125C110.125 704.625 211.375 805.875 332.875 805.875h567C1021.375 805.875 1122.625 704.625 1122.625 583.125v-398.25C1122.625 63.375 1021.375-37.875 899.875-37.875zM332.875 765.375c-101.25 0-182.25-81-182.25-182.25v-398.25c0-101.25 81-182.25 182.25-182.25h567c101.25 0 182.25 81 182.25 182.25V583.125c0 101.25-81 182.25-182.25 182.25H332.875zM613 465c-172.125 0-330.75 30.375-475.875 84.375-10.125 6.75-16.875 16.875-13.5 27s16.875 16.875 27 10.125c141.75-54 297-81 462.375-81 165.375 0 320.625 27 465.75 77.625 10.125 3.375 23.625 0 27-13.5 3.375-10.125 0-23.625-13.5-27-148.5-50.625-307.125-77.625-479.25-77.625zM494.875 259.125c-6.75 0-10.125 0-16.875 3.375-10.125 3.375-20.25 13.5-27 23.625-3.375 6.75-3.375 13.5-3.375 20.25V434.625c0 37.125 30.375 67.5 67.5 67.5h202.5c37.125 0 67.5-30.375 67.5-67.5v-128.25c0-27-20.25-47.25-47.25-47.25-6.75 0-13.5 0-20.25 3.375L629.875 299.625c-10.125 3.375-20.25 3.375-27 0L515.125 262.5c-6.75-3.375-13.5-3.375-20.25-3.375z m20.25 202.5c-13.5 0-27-13.5-27-27v-128.25c0-3.375 3.375-6.75 3.375-6.75h6.75l87.75 40.5c20.25 6.75 40.5 10.125 60.75 0L734.5 299.625c6.75 0 10.125 3.375 10.125 6.75V434.625c0 13.5-13.5 27-27 27H515.125z"  horiz-adv-x="1228" />

    
    <glyph glyph-name="wallet-outlined" unicode="&#59007;" d="M899.875-37.875H332.875C211.375-37.875 110.125 63.375 110.125 184.875V583.125C110.125 704.625 211.375 805.875 332.875 805.875h567C1021.375 805.875 1122.625 704.625 1122.625 583.125v-398.25C1122.625 63.375 1021.375-37.875 899.875-37.875zM332.875 765.375c-101.25 0-182.25-81-182.25-182.25v-398.25c0-101.25 81-182.25 182.25-182.25h567c101.25 0 182.25 81 182.25 182.25V583.125c0 101.25-81 182.25-182.25 182.25H332.875zM616.375 465c-172.125 0-330.75 30.375-475.875 84.375-10.125 6.75-16.875 16.875-13.5 27s16.875 16.875 27 13.5c141.75-57.375 297-84.375 462.375-84.375 165.375 0 320.625 27 465.75 77.625 10.125 3.375 23.625 0 27-13.5 3.375-10.125 0-23.625-13.5-27-148.5-50.625-310.5-77.625-479.25-77.625zM741.25 232.125h189c13.5 0 23.625-10.125 23.625-23.625s-10.125-23.625-23.625-23.625H741.25c-13.5 0-23.625 10.125-23.625 23.625s10.125 23.625 23.625 23.625z"  horiz-adv-x="1228" />

    
    <glyph glyph-name="ship-outlined" unicode="&#59008;" d="M899.875-37.875H332.875C211.375-37.875 110.125 63.375 110.125 184.875V583.125C110.125 704.625 211.375 805.875 332.875 805.875h567C1021.375 805.875 1122.625 704.625 1122.625 583.125v-398.25C1122.625 63.375 1021.375-37.875 899.875-37.875zM332.875 765.375c-101.25 0-182.25-81-182.25-182.25v-398.25c0-101.25 81-182.25 182.25-182.25h567c101.25 0 182.25 81 182.25 182.25V583.125c0 101.25-81 182.25-182.25 182.25H332.875zM616.375 465c-172.125 0-330.75 30.375-475.875 84.375-10.125 6.75-16.875 16.875-13.5 27s16.875 16.875 27 13.5c141.75-57.375 297-84.375 462.375-84.375 165.375 0 320.625 27 465.75 77.625 10.125 3.375 23.625 0 27-13.5 3.375-10.125 0-23.625-13.5-27-148.5-50.625-310.5-77.625-479.25-77.625zM535.375 333.375c10.125 0 20.25-10.125 20.25-20.25v-128.25c0-10.125-10.125-20.25-20.25-20.25s-20.25 10.125-20.25 20.25V313.125c0 10.125 10.125 20.25 20.25 20.25zM535.375 333.375h229.5c10.125 0 20.25-10.125 20.25-20.25s-10.125-20.25-20.25-20.25H535.375c-10.125 0-20.25 10.125-20.25 20.25s10.125 20.25 20.25 20.25zM744.625 252.375c-6.75 6.75-6.75 20.25 0 27l33.75 33.75-27 30.375c-6.75 6.75-6.75 20.25 0 27s20.25 6.75 27 0l43.875-43.875c6.75-6.75 6.75-20.25 0-27l-3.375-3.375s0-3.375-3.375-3.375l-43.875-43.875c-6.75-3.375-16.875-3.375-27 3.375z"  horiz-adv-x="1228" />

    
    <glyph glyph-name="order-outlined" unicode="&#59009;" d="M722.9375 745.60702515c99.44219971 0 180.80392456-81.36172485 180.80392456-180.80310059v-421.875C903.74142456 43.48672484999997 822.37969971-37.875 722.9375-37.875H301.0625c-99.44219971 0-180.80392456 81.36172485-180.80392456 180.80392456v421.875c0 99.44137573 81.36172485 180.80310059 180.80392456 180.80310059h30.13357544v-36.16094971H301.0625c-78.34844971 0-141.62969971-60.26715088-144.64297485-138.61560059v-427.90155029c0-78.34844971 60.26797485-141.62969971 138.61642456-144.64297485H722.9375c78.34844971 0 141.62969971 60.26797485 144.64297485 138.61560058V564.80474854c0 78.34762573-60.26797485 141.62887573-138.61642456 144.64215088H722.9375V745.60702515zM409.54452515 353.86642456000004h204.9109497c9.03982544 0 18.08047485-9.04064942 18.08047486-18.08047485s-9.04064942-18.08047485-18.08047486-18.08047486H409.54452515c-9.03982544 0-18.08047485 9.03982544-18.08047486 18.08047486s9.04064942 18.08047485 18.08047486 18.08047485z m0-150.67034912h204.9109497c9.03982544 0 18.08047485-9.03982544 18.08047486-18.07965088s-9.04064942-18.08047485-18.08047486-18.08047485H409.54452515c-9.03982544 0-18.08047485 9.03982544-18.08047486 18.08047485s9.04064942 18.07965088 18.08047486 18.07965088zM527.06719971 561.78982544c-24.10702515 0-75.33517456 9.04064942-147.65625 24.10784912-27.12112427 3.01327515-48.21487427 30.13357544-48.21487427 57.25387573V745.60702515C331.19607544 778.75469971 358.31719971 805.875 391.46405029 805.875h271.20547486C695.81719971 805.875 722.9375 778.75469971 722.9375 745.60702515v-102.45547486c0-27.12030029-21.09375-54.24060058-48.21405029-60.26797485-72.32189941-15.06637573-123.54922485-21.09375-147.65625-21.09375zM391.46405029 769.71405029c-12.05310058 0-24.10702515-12.05310058-24.10702514-24.10702514v-102.45547486c0-12.05310058 9.04064942-21.09375 18.08047485-24.10702514 87.38827515-18.08047485 123.54922485-21.09375 141.62969971-21.09375s54.24060058 3.01327515 141.62887573 21.09375c12.05392456 3.01327515 18.08047485 12.05392456 18.08047485 24.10702514V745.60702515c0 12.05392456-12.05310058 24.10702515-24.10702514 24.10702514H391.46405029z"  horiz-adv-x="1024" />

    
    <glyph glyph-name="cart-outlined" unicode="&#59000;" d="M832 192H277.333c-8.533 0-17.066 8.533-21.333 17.067L149.333 635.733l-25.6 110.934H64c-12.8 0-21.333 8.533-21.333 21.333S51.2 789.333 64 789.333h76.8c8.533 0 17.067-8.533 21.333-17.066l25.6-110.934h750.934c8.533 0 12.8-4.266 17.066-8.533C960 648.533 960 640 960 635.733L853.333 209.067C849.067 200.53300000000002 840.533 192 832 192z m-537.6 42.667h520.533l93.867 384H196.267l98.133-384zM264.533 64a64 64 0 1 1 128 0 64 64 0 1 1-128 0z m452.267 0a64 64 0 1 1 128 0 64 64 0 1 1-128 0z"  horiz-adv-x="1024" />

    
    <glyph glyph-name="cart-two-outlined" unicode="&#59004;" d="M926.78222656 215.73955077999995H332c-11.73955078 0-23.47822266 7.82578125-27.39111328 23.47822266L187.21777344 661.82578125 159.82578125 763.56533203H101.13066406c-15.65244141 0-31.30488281 11.73867187-31.30488281 31.30400391S85.47822266 826.17421875 101.13066406 826.17421875h82.17333985c11.73955078 0 23.47822266-7.82666016 27.39199218-23.47822266l27.39111328-105.65332031h802.17333985c7.82666016 0 19.56533203-3.91201172 23.47910156-11.73867187s7.82578125-15.6515625 3.91289063-27.39111329l-113.47822266-422.60888671c-3.91376953-7.82578125-15.65244141-19.56445313-27.39199219-19.56445313zM351.56445312 278.34667969h551.73955079l97.82666015 360H253.73955078l97.82578125-360zM414.17421875-58.17421875000002c-58.69599609 0-109.56533203 46.95644531-109.56533203 109.56533203s46.95644531 109.56533203 109.56445312 109.56533203 109.56621094-46.95644531 109.56621094-109.56445312-50.87021484-109.56621094-109.56533203-109.56621094z m0 156.52177734c-27.39199219 0-46.95644531-23.47822266-46.95644531-46.95644531s23.47822266-46.95644531 46.95644531-46.95644531 46.95644531 23.47822266 46.95644531 46.95644531-19.56533203 46.95644531-46.95644531 46.95644531z m469.56445313-156.52177734c-58.69511719 0-109.56445313 46.95644531-109.56445313 109.56533203s46.95644531 109.56533203 109.56445313 109.56533203 109.56533203-46.95644531 109.56533203-109.56445312-50.86933594-109.56621094-109.56445313-109.56621094z m-1e-8 156.52177734c-27.39111328 0-46.95644531-23.47822266-46.95644531-46.95644531s23.47822266-46.95644531 46.95732422-46.95644531 46.95644531 23.47822266 46.95644531 46.95644531-19.56533203 46.95644531-46.95644531 46.95644531z"  horiz-adv-x="1157" />

    
    <glyph glyph-name="aftersale-outlined" unicode="&#59003;" d="M192.89778645 235.30400391c-43.04267578 0-78.26044922 35.21777344-78.26044921 78.26132812v62.60888672c0 15.6515625 0 35.21777344 3.91376953 50.86933594v7.82578125c11.73867187 31.30488281 39.12978516 54.78222656 74.34667969 54.78222656 43.04443359 0 78.26132813-35.21689453 78.26132812-78.26044922v-97.82578125c0-43.04355469-35.21777344-78.26132813-78.26044922-78.26132812zM173.33333333 419.21777344v-105.65332032c0-11.73867187 7.82578125-19.56445313 19.56445313-19.56445312s19.56621094 7.82578125 19.56621093 19.56445313V411.39199219c0 11.73955078-7.82666016 19.56533203-19.56533203 19.56533203-7.82578125 0-15.65244141-3.91289063-19.56533203-11.73867188z m680.86933594-180c-7.82578125 0-15.6515625 0-19.56445313 3.91289062-35.21777344 7.82578125-58.69599609 39.12978516-58.69599609 74.3475586V415.30400391c0 39.13066406 27.39111328 70.43554688 66.52177734 74.3484375 39.12978516 3.91289063 74.34755859-15.65244141 86.08710938-50.87021485v-7.82578125c0-15.65244141 3.91289063-35.21777344 3.91289062-50.86933593 0-31.30488281-3.91289063-62.60888672-7.82666015-93.91289063 0-3.91376953-3.91289063-7.82666016-3.91289063-11.73955078-11.73867187-19.56445313-39.13066406-35.21777344-66.52177734-35.21777344z m0 191.73867187c-11.73867187 0-19.56445313-7.82578125-19.56445313-19.56445312V313.56445312000005c0-7.82578125 3.91289063-15.65244141 15.6515625-19.56533203 7.82578125-3.91289063 15.65244141 0 19.56533203 3.91289063 3.91289063 23.47822266 3.91289063 50.86933594 3.91289063 78.26132812v39.12978516c-3.91289063 11.73955078-11.73867187 15.65332031-19.56445313 15.65332031zM635.07288411 35.739550779999945c-15.65332031 27.39111328-46.95732422 35.21777344-74.3484375 27.39111328-27.39111328-11.73955078-43.04355469-39.13066406-35.21777344-70.43554687 7.82666016-27.39111328 35.21777344-46.95556641 62.60888672-43.04267578s50.87021484 27.39111328 50.87021485 58.69511718c3.91289063 11.73955078 0 19.56533203-3.91289063 27.39199219M114.63733724 348.78222656v58.6959961c0 230.86933594 183.91376953 418.69599609 410.87021484 418.69599609s410.86933594-183.91376953 410.86933594-414.78222656H877.68001302c0 195.6515625-156.52177734 356.08623047-352.17333985 356.08623047S173.33333333 607.0426757800001 173.33333333 411.39111328v-54.78222656l-58.69599609-7.82666016z m493.04355468-367.82578125l-7.82578125 58.6959961c136.95644531 23.47822266 242.60888672 121.30400391 270 258.26044921l54.78222657-11.73867187c-35.21777344-164.3484375-156.52177734-277.82666016-316.95644532-305.21777344z m-78.26044921 195.65244141c-43.04355469 0-86.08710937 19.56445313-129.13066407 54.78222656-11.73867187 11.73955078-15.65244141 27.39111328-3.91289062 43.04355469 11.73867187 11.73955078 27.39111328 11.73955078 43.04355469 3.91289062 19.56445313-15.6515625 54.78222656-43.04355469 90-43.04355468 31.30400391 0 62.60888672 15.65332031 90 39.13066406 11.73867187 11.73955078 31.30400391 11.73955078 43.04355468 0s11.73867187-31.30400391 0-43.04355469c-39.13066406-35.21777344-86.08710937-54.78222656-133.04355468-54.78222656zM748.55110677 450.52177734h-7.82666016c-62.60888672 19.56445313-97.82578125 66.52177734-117.39111328 101.73867188-125.21777344-140.86933594-313.04355469-86.08623047-313.04355469-86.08623047-15.65244141 7.82578125-23.47822266 23.47822266-19.56445312 39.12978516 3.91201172 15.65332031 19.56445313 23.47822266 35.21689453 19.56533203 7.82578125-3.91289063 183.91289063-50.86933594 281.73867187 105.6524414 7.82666016 11.73867187 19.56533203 15.65244141 31.30488282 11.73867188 11.73867187-3.91289063 19.56445313-11.73867187 23.47822265-23.47822266 0-3.91289063 15.6515625-86.08623047 97.82578125-109.56445312 15.65244141-3.91376953 23.47822266-19.56533203 19.56533203-35.21777344-3.91289063-15.65244141-15.65244141-23.47822266-31.3040039-23.47822266z"  horiz-adv-x="1024" />

    
    <glyph glyph-name="beforesale-outlined" unicode="&#58996;" d="M159.88599467 222.44162370000004c-45.5681517 0-82.85085392 37.28270222-82.85085392 82.85085393V371.57243258999995c0 16.56968533 0 37.28270222 4.14211792 53.85238756v8.28544948c12.42756741 33.1405843 41.42603378 57.99571911 78.708736 57.99571912 45.56693808 0 82.8496403-37.28270222 82.8496403-82.85085393v-103.56265719c0-45.5681517-37.28270222-82.85085392-82.8496403-82.85085393z m-16.57089897 198.84107852v-111.84810667c0-12.42756741 8.28544948-20.71301689 20.71301689-20.71301688s20.71301689 8.28544948 20.71301689 20.71301688v103.5626572c0 12.42756741-8.28544948 20.71301689-20.71301689 20.71301688-12.42756741-4.14211792-16.56968533-8.28544948-20.71301689-12.42756741z m720.79890963-194.69896059c-8.28423585 0-16.56968533 0-20.71180325 4.14333155-37.28270222 8.28423585-62.13783703 41.42482015-62.13783705 78.70752237v103.5626572c0 41.42603378 28.99725275 74.56540445 70.42207289 78.708736 41.42603378 4.14211792 78.708736-16.57089897 91.13630341-53.8536012v-8.28423585c0-16.57089897 4.14211792-37.28270222 4.14211792-53.85360118 0-33.13937067-4.14211792-66.27995497-8.28544947-99.42053927 0-4.14211792-4.14211792-8.28423585-4.14211793-12.4275674-16.56968533-20.71180325-41.42482015-37.28270222-70.42328652-37.28270222z m0 202.98441007s-4.14211792 0 0 0c-12.42756741 0-20.71180325-8.28544948-20.71180325-20.71301688v-103.56265719c0-8.28544948 8.28423585-16.57089897 16.56968533-20.71301688 8.28544948 0 16.56968533 0 20.71301689 4.14211792 4.14211792 24.85513482 4.14211792 53.85360118 4.14211792 82.85085392v41.42482016c-4.14211792 12.42756741-12.42756741 16.57089897-20.71301689 16.57089895zM627.99022459 15.315095700000029c-16.56968533 28.99846637-49.71026963 37.28270222-78.70752237 28.99846638-28.99725275-12.42756741-45.5681517-41.42603378-37.28270222-74.56540445 8.28544948-28.99846637 37.28270222-49.71026963 66.27995497-45.56815171 28.99846637 4.14211792 53.85360118 28.99725275 53.85360118 62.13783705 4.14211792 8.28544948 4.14211792 16.56968533-4.14333156 28.99725273M77.03514075 342.57517985000004v62.13783704c0 244.40801659 194.69896059 443.24909511 434.96485925 443.24909511S946.96485925 653.26436503 946.96485925 408.85513482h-62.13783703c0 207.126528-165.70049422 376.96914015-372.82702222 376.96914015S139.17297778 615.98166282 139.17297778 408.85513482v-57.99571912l-62.13783703-8.28423585z m521.9578311-389.39792118l-8.28544948 62.13783703c144.98869097 24.85513482 256.83679763 128.41900563 285.83405038 273.40648297l62.13783703-12.42756742c-37.28270222-169.84261215-165.70049422-294.11828622-339.68643793-323.11675258z"  horiz-adv-x="1024" />

    
    <glyph glyph-name="internet-outlined" unicode="&#58997;" d="M521.33319111 811.19800889a413.60497778 413.60497778 0 0 0 338.80632889-175.92775111c22.79651555 46.37013333 27.96202667 78.48732445 18.36942222 89.16764444-7.45699555 8.27164445-28.62193778 9.04874667-60.23395556 0.77596445l-58.99377778 45.75004444c75.34364445 28.35000889 134.52970667 29.32053333 165.40444445-4.93226666 34.83534222-38.71971555 21.16494222-108.74197333-27.92334222-193.79313778 24.81493333-53.24458667 38.68103111-112.58538667 38.68103111-175.15064889 0-228.74453333-185.40430222-414.11015111-414.11015111-414.11015111-77.47811555 0-149.94659555 21.24344889-211.968 58.25422222-91.96430222-41.70979555-164.78208-48.85617778-200.23864889-9.51409778-32.39025778 35.96174222-22.8352 99.03217778 18.05880889 176.00512l39.61287111-59.96316444c-16.89372445-38.44778667-20.07836445-64.9728-11.49610667-74.48803556 9.90321778-11.02961778 44.15715555-8.73813333 95.07157333 10.60295111a413.29436445 413.29436445 0 0 0-143.15064888 313.21315556c0 228.70584889 185.40430222 414.11015111 414.11015111 414.11015111z m334.0288-302.80590222l-2.63964445-3.68981334C801.06951111 433.24416 729.99822222 355.14595555000005 645.72529778 278.09336888999997l-11.06830223-10.01927111-11.49610667-10.2912c-85.20590222-75.57575111-170.10232889-137.90776889-246.41536-181.71448889a352.01137778 352.01137778 0 0 1 478.6176 432.28501333zM521.37301333 749.09809778a352.01137778 352.01137778 0 0 1-207.57959111-636.32952889l-14.09706667-7.14524444c86.99335111 43.10698667 191.96586667 117.28440889 293.40672 208.62748444 97.59516445 87.84782222 179.77230222 180.66545778 232.12373333 260.62848a351.93287111 351.93287111 0 0 1-303.89248 174.21880889z m113.86766222-559.08465778a31.06929778 31.06929778 0 1 0 0-62.13745778 31.06929778 31.06929778 0 0 0 0 62.13745778zM314.29745778 438.48704a41.39918222 41.39918222 0 1 0 0-82.79836445 41.39918222 41.39918222 0 0 0 0 82.79836445z m144.93696 207.07441778a62.13745778 62.13745778 0 1 0 0-124.27605333 62.13745778 62.13745778 0 0 0 0 124.27605333z"  horiz-adv-x="1024" />

    
    <glyph glyph-name="right-circle-outlined" unicode="&#58998;" d="M512 834C263.47695312 834 62 632.52304688 62 384s201.47695312-450 450-450 450 201.47695312 450 450S760.52304688 834 512 834z m0-40.90869141c225.94042969 0 409.09130859-183.15 409.09130859-409.09130859S737.94042969-25.09130859000004 512-25.09130859000004 102.90869141 158.05957031000003 102.90869141 384 286.05957031 793.09130859 512 793.09130859z m-64.92304687-212.72783203a20.45478516 20.45478516 0 0 1-1e-8-28.92216797L634.80957031 363.75 448.14130859 177.04130858999997a20.45478516 20.45478516 0 1 1 28.92216797-28.92304687l198.20478516 198.16347656a20.53652344 20.53652344 0 0 1 6.38173828 6.70957031l-1.84130859-2.08652343 2.12695312 2.53652343a20.45478516 20.45478516 0 0 1-9.81738281 30.88564454L476 580.36347656a20.45478516 20.45478516 0 0 1-28.92304688 0z"  horiz-adv-x="1024" />

    
    <glyph glyph-name="left-circle-outlined" unicode="&#58999;" d="M512 834c248.52304688 0 450-201.47695312 450-450s-201.47695312-450-450-450S62 135.47695311999996 62 384 263.47695312 834 512 834z m0-40.90869141C286.05957031 793.09130859 102.90869141 609.94042969 102.90869141 384S286.05957031-25.09130859000004 512-25.09130859000004 921.09130859 158.05957031000003 921.09130859 384 737.94042969 793.09130859 512 793.09130859z m64.92304687-212.72783203a20.45478516 20.45478516 0 0 0 1e-8-28.92216797L389.19042969 363.75l186.66738281-186.70869141a20.45478516 20.45478516 0 1 0-28.92216797-28.92304687L348.73173828 346.28173828a20.53652344 20.53652344 0 0 0-6.38173828 6.70957031l1.84130859-2.08652343-2.12695312 2.53652343a20.45478516 20.45478516 0 0 0 9.81738281 30.88564454L548 580.36347656a20.45478516 20.45478516 0 0 0 28.92304688 0z"  horiz-adv-x="1024" />

    
    <glyph glyph-name="mobile-outlined" unicode="&#59001;" d="M746.667-64H277.333c-38.4 0-64 25.6-64 64V256c0 12.8 8.534 21.333 21.334 21.333h554.666c12.8 0 21.334-8.533 21.334-21.333v-256c0-38.4-25.6-64-64-64zM256 234.66700000000003V0c0-12.8 8.533-21.333 21.333-21.333h469.334c12.8 0 21.333 8.533 21.333 21.333V234.66700000000003H256zM810.667 256H768V768c0 12.8-8.533 21.333-21.333 21.333H277.333C264.533 789.333 256 780.8 256 768v-512h-42.667V768c0 38.4 25.6 64 64 64h469.334c38.4 0 64-25.6 64-64v-512z m-256-170.667h-85.334c-12.8 0-21.333 8.534-21.333 21.334S456.533 128 469.333 128h85.334c12.8 0 21.333-8.533 21.333-21.333s-8.533-21.334-21.333-21.334z"  horiz-adv-x="1024" />

    
    <glyph glyph-name="search-outlined" unicode="&#59002;" d="M486.39999999 42.66666667000004C258.84479999 42.66666667000004 76.79999999 224.71146667000005 76.79999999 452.26666667S258.84479999 861.86666667 486.39999999 861.86666667s409.6-182.0448 409.6-409.6-182.0448-409.6-409.6-409.6z m0 773.68853333c-200.24853333 0-364.08853333-163.84-364.08853333-364.08853333S286.15146666 88.17813333000004 486.39999999 88.17813333000004 850.48853333 252.01813332999996 850.48853333 452.26666667 686.64853333 816.3552 486.39999999 816.3552zM955.16479999-39.25333333000003c-4.55146667 0-13.65333333 0-18.2048 4.55146666l-191.14666666 191.14666667c-9.10186667 9.10186667-9.10186667 22.7552 0 31.85706667s22.7552 9.10293333 31.85813333 0l191.14666667-191.14666667c9.10186667-9.10186667 9.10186667-22.7552 0-31.85706667 0-4.55146667-9.10293333-4.55146667-13.65333334-4.55146666z"  horiz-adv-x="1024" />

    
    <glyph glyph-name="check-circle-filled" unicode="&#58900;" d="M510.12500029 832.12500029C262.62500029 832.12500029 63.87499971 633.37499971 63.87499971 385.87499971s200.62500029-446.24999971 446.25000058-446.24999971S956.375 140.25000029 956.375 385.87499971 755.74999971 832.12500029 510.12500029 832.12500029z m193.12499971-300.00000058L493.25000029 241.50000029a32.81249971 32.81249971 0 0 0-52.50000058 0l-123.75 172.49999942c-1.87499971 1.87499971-1.87499971 5.625 0 7.50000058 1.87499971 1.87499971 3.75000029 3.75000029 7.50000058 3.74999942h46.87499971c9.37500029 0 20.62500029-5.625 26.25000029-13.12499971l71.24999942-99.37500029L624.5 532.12499971c5.625 7.49999971 15.00000029 13.12499971 26.25000029 13.12500058h46.87499971c5.625 0 9.37500029-7.49999971 5.625-13.12500058z"  horiz-adv-x="1024" />

    
    <glyph glyph-name="warn-circle-filled" unicode="&#58904;" d="M519.23461573 808.38461573C280.28461572 808.38461573 86.54230742 614.64230742 86.54230742 375.69230742s193.74230742-432.69230742 432.69230831-432.69230742 432.69230742 193.74230742 432.69230742 432.69230742S758.18461573 808.38461573 519.23461573 808.38461573z m-30.91153888-224.06538516c0 4.22307685 3.46153886 7.71923057 7.71923057 7.71923057h46.38461573c4.22307685 0 7.71923057-3.46153886 7.71923056-7.71923057v-262.73076943c0-4.25769258-3.46153886-7.71923057-7.71923056-7.71923057h-46.38461573a7.75384628 7.75384628 0 0 0-7.71923057 7.71923056v262.73076944z m30.91153887-424.97307685a46.38461573 46.38461573 0 1 0 0 92.73461571 46.38461573 46.38461573 0 0 0 0-92.76923057z"  horiz-adv-x="1024" />

    
    <glyph glyph-name="caret-down-outlined" unicode="&#58910;" d="M663.11284264 77.06571286999997l-412.5865585 481.35098551A107.86576737 107.86576737 0 0 0 332.36943443 736.53004561H1157.74480064a107.86576737 107.86576737 0 0 0 81.91056718-178.11334723l-412.65397538-481.35098551a107.86576737 107.86576737 0 0 0-163.82113364 0z"  horiz-adv-x="1489" />

    
    <glyph glyph-name="star-filled" unicode="&#58913;" d="M755.18337884 263.19869586000004l37.91992785-230.8200065c5.40710101-32.65327166-15.51908139-63.69143445-46.7679114-69.37942429a55.19456213 55.19456213 0 0 0-36.65593021 6.10932185l-198.30717965 109.0549042-198.09651325-108.8442378a56.17767097 56.17767097 0 0 0-77.52518619 25.20972977 62.49765921 62.49765921 0 0 0-5.75821142 38.06037187l37.77948385 230.82000732L107.52505145 426.46505255a62.0061048 62.0061048 0 0 0-0.98310965 84.96872809 56.59900378 56.59900378 0 0 0 32.79371567 17.48529986l221.55069095 33.56615891L459.89949383 772.16839709a56.87989178 56.87989178 0 0 0 51.26212519 33.4959365 56.87989178 56.87989178 0 0 0 51.33234759-33.4959365l99.01314542-209.82360168 221.55069095-33.56615891c31.38927402-4.63465777 53.29856525-34.97060056 48.87457388-67.8345378a61.09321756 61.09321756 0 0 0-16.50219104-34.40882374L755.18337884 263.19869586000004z"  horiz-adv-x="1024" />

    


  </font>
</defs>
</svg>
